PathFileType	4	(X/Y/Z)	RBDS026\RBDS026runT25.trc
DataRate	CameraRate	NumFrames	NumMarkers	Units	OrigDataRate	OrigDataStartFrame	OrigNumFrames
150.000000	150.000000	6	33	mm	150.000000	562	4500
Frame#	Time	L.ASIS			L.Heel.Bottom			L.Heel.Lateral			L.Heel.Top			L.Iliac.Crest			L.MT1			L.MT5			L.PSIS			L.Shank.Bottom.Lateral			L.Shank.Bottom.Medial			L.Shank.Top.Lateral			L.Shank.Top.Medial			L.Thigh.Bottom.Lateral			L.Thigh.Bottom.Medial			L.Thigh.Top.Lateral			L.Thigh.Top.Medial			R.ASIS			R.ASY			R.Heel.Bottom			R.Heel.Lateral			R.Heel.Top			R.Iliac.Crest			R.MT1			R.MT5			R.PSIS			R.Shank.Bottom.Lateral			R.Shank.Bottom.Medial			R.Shank.Top.Lateral			R.Shank.Top.Medial			R.Thigh.Bottom.Lateral			R.Thigh.Bottom.Medial			R.Thigh.Top.Lateral			R.Thigh.Top.Medial			
		X1	Y1	Z1	X2	Y2	Z2	X3	Y3	Z3	X4	Y4	Z4	X5	Y5	Z5	X6	Y6	Z6	X7	Y7	Z7	X8	Y8	Z8	X9	Y9	Z9	X10	Y10	Z10	X11	Y11	Z11	X12	Y12	Z12	X13	Y13	Z13	X14	Y14	Z14	X15	Y15	Z15	X16	Y16	Z16	X17	Y17	Z17	X18	Y18	Z18	X19	Y19	Z19	X20	Y20	Z20	X21	Y21	Z21	X22	Y22	Z22	X23	Y23	Z23	X24	Y24	Z24	X25	Y25	Z25	X26	Y26	Z26	X27	Y27	Z27	X28	Y28	Z28	X29	Y29	Z29	X30	Y30	Z30	X31	Y31	Z31	X32	Y32	Z32	X33	Y33	Z33	

563	3.746666666666667	2266.519059275748	1067.69531771999	888.1516341822223	1690.242081677713	221.1259095468047	971.2207628096894	1720.268064090789	203.8206777667644	920.4388393533869	1730.204039608993	245.8904804294245	961.4967865985701	2210.020598234584	1156.63985539056	848.5007642905812	1853.636176913347	68.5673227589766	995.8832811079025	1802.988911394921	79.26677750201243	894.1602933664929	2102.120254989088	1133.360936317092	963.8742392987613	1824.015931898435	275.3765528409213	887.9701813941558	1793.155372375302	301.276895295277	919.1746479429761	1861.599638912657	342.3985433103735	862.4495888806659	1831.257816939607	372.646359974948	893.798331518563	2060.950476520924	690.9011029815845	837.5420049085685	2009.951329957578	708.0271524477203	886.9962830606765	2082.297822158482	798.22547767996	824.7280996203654	2037.185898299454	813.0682674220726	876.4192986098334	2266.639285950977	1095.461766566257	1119.539730125934	2398.659450164222	140.8120936362673	1093.841673869063	2223.858114805974	75.87540065942478	1054.050946106101	2246.703008972147	96.1638352550067	1104.019363078129	2229.357070287008	121.9327032578216	1056.282920604482	2201.185878385324	1173.752572692716	1163.126458289193	2446.585661622288	104.0721407121318	1049.331600155381	2403.999669037982	88.92334874493447	1152.466914369071	2104.606869954876	1137.571013858977	1063.145693174781	2295.172838729165	217.4591974743509	1133.112697845965	2249.972451575965	222.8361154311533	1101.177496016882	2286.568713458905	294.9492204414788	1156.240099597598	2242.687667456528	299.4662679724038	1124.650616770981	2316.06057380633	681.5010303987469	1186.016631543602	2251.675711232616	660.3081310946931	1164.795452086256	2279.668783344442	784.9711773886652	1196.929279147137	2216.898488550043	764.2101573049014	1179.387419472015	
564	3.753333333333333	2267.621118410353	1069.312768971506	888.328555151376	1684.096063554761	231.1092774172762	970.8378783017531	1712.937800622737	212.9417954462784	919.6975017216166	1724.862043208479	254.4440369458549	960.7331231088332	2211.524552623709	1159.046217402013	848.9933373711028	1842.303208006126	72.55325377792896	993.1334226416571	1791.306701358406	85.07833695674279	892.3652698741101	2103.396410036607	1135.287616903987	964.241280811348	1818.214396315233	280.8060724084809	886.7534059013497	1787.584403110294	307.0749478464586	917.8185659422007	1856.743164143228	347.3529722813602	861.4107288949671	1826.798163148112	378.0289604098533	892.6840861054696	2060.659394627512	693.2954825448012	837.6784021629485	2009.429005355906	711.1416093808193	886.6682261388644	2082.904470690286	800.4557883818343	824.5038540926764	2037.734994243949	815.8763020159412	875.954662014377	2267.70225909267	1096.297369984596	1119.599807209721	2415.921224481017	142.7971438515638	1090.762007301322	2243.683618246625	70.23830854555877	1052.823778025656	2266.384430744258	91.0006286484054	1102.630258747311	2247.067916686792	116.4423893950456	1055.543611139497	2202.50070299501	1175.068253018113	1163.439555062392	2464.669163540294	108.8939072844506	1045.049707027229	2424.552720188275	90.51297114744203	1148.633462294966	2106.085318527711	1139.171192686878	1063.618957122414	2308.943019602109	214.7669350461625	1131.977224887206	2263.258152145856	218.1609330326577	1100.40156687899	2296.9548659944	291.6404735505548	1155.571038256095	2252.668870830472	294.2692334593492	1124.338740228537	2313.23027101449	680.2772555040184	1186.320973595754	2248.751409695236	659.8535559653712	1164.577248150143	2277.7330872999	784.0626693720241	1197.527703692588	2214.911048996508	764.0278837350695	1179.407114467751	
565	3.76	2268.676988999134	1070.417671239635	888.5171482842428	1678.12154452333	240.6677558928921	971.0289129449895	1705.721690778331	222.0119057121596	919.4135432762365	1719.553617221694	262.7150588412526	960.5960200217797	2212.850296315729	1160.89781807904	849.4500713391965	1831.376159625613	76.70610786953257	990.0409025674096	1779.909787956089	91.44847909450564	890.3520332197318	2104.593765966404	1136.719955789123	964.599875625745	1812.586027799498	286.1451362447416	885.8351213276092	1782.290642569497	312.8941040243988	916.7636364121987	1852.230078475249	352.0705914030253	860.6073724007169	1822.753851852231	383.2778414515723	891.7636348336823	2061.078479562036	694.9020698493706	837.7483180216508	2009.495023090467	713.3876626246382	886.1532965494955	2084.023177069865	801.938275280314	824.1821556878376	2038.610000523764	817.8771194540915	875.2238863322999	2268.736971350741	1096.587984175347	1119.710833407316	2431.809885798396	145.068289186425	1087.785768149566	2262.302243267926	65.34654815592498	1051.675092783277	2284.940511517957	86.51445926925882	1101.313306168455	2263.65737048515	111.5939373414321	1054.926277248816	2203.843573422573	1175.678347323108	1163.819703836795	2481.12669926584	113.9682260823467	1040.836080392221	2443.679282313285	92.48353227852321	1144.821856861638	2107.43936812476	1140.25471657497	1064.099376010426	2321.703455702516	212.5095726062335	1130.891132393632	2275.631775042759	213.9993810943123	1099.64526531149	2306.577459767141	288.6858825477808	1154.880527146596	2261.987681086995	289.5108136594332	1123.967738934352	2310.534648822752	678.7417417590593	1186.61753295819	2245.967674453855	659.0869817273356	1164.358618027827	2275.915353746617	782.8079674484693	1198.235806686435	2213.044389186154	763.5002030240762	1179.540639285046	
566	3.766666666666667	2269.68981756831	1071.019703245012	888.7403484107691	1672.26747005119	249.7805389243651	971.7131647694697	1698.63227137777	231.005741965476	919.5316682831358	1714.248642172949	270.694749963103	961.0338988445634	2213.973995811461	1162.16673209266	849.8699085506456	1820.865002016237	81.01160703011649	986.6510606524749	1768.881614182603	98.35336520684463	888.1132707571684	2105.698680297287	1137.632616415891	964.9492099864364	1807.107995306517	291.4387590907157	885.2017155773708	1777.277919146642	318.7657914580167	916.031521518976	1848.032118139972	356.5971515837681	860.0409680684065	1819.115802494199	388.4200491388544	891.0726256113834	2062.159027866539	695.7034012180537	837.7278147169012	2010.137517222426	714.7138411574052	885.4820007559923	2085.589755997731	802.6616068840942	823.7766416589759	2039.767568318137	819.0335701491581	874.2729197357345	2269.720590128141	1096.381484392317	1119.892455195627	2446.150383221319	147.4602172977981	1084.955698708338	2279.470354237172	61.0805486393549	1050.525992897618	2302.100694130799	82.58207578788429	1100.010686494601	2278.901645241699	107.2867222278352	1054.354361329854	2205.175501331467	1175.607934368375	1164.2654274677	2495.834828963145	119.0987571472889	1036.779326526785	2461.136282918731	94.64505511157296	1141.087176730054	2108.644058117638	1140.810540727381	1064.582453623602	2333.27611232259	210.6012575350443	1129.830483105511	2286.924327206653	210.3065084220744	1098.857132972166	2315.290397950203	286.041067258957	1154.139725453658	2270.506984502393	285.1842504125684	1123.482126940481	2308.063850844407	676.9781373833443	1186.866120951056	2243.411754546209	658.070578467951	1164.137886438856	2274.295605687896	781.2877884986999	1198.986125896576	2211.373078030757	762.690400641352	1179.759764991524	
567	3.773333333333333	2270.661045773011	1071.137802413363	889.0138116361267	1666.506552047056	258.4560727390214	972.7593439545764	1691.70942744286	239.90302361754	919.9565479526641	1708.944252516107	278.3921826447367	961.9425224558238	2214.882550521576	1162.839034934658	850.2544129029868	1810.7803013026	85.4698018262834	983.0329702123219	1758.322599735383	105.7456352394578	885.6584102143293	2106.697255874959	1138.001180216118	965.2858335042317	1801.78552468369	296.7259728176128	884.8200125972396	1772.566676338956	324.7106550350595	915.6153226909382	1844.14258328492	360.975898858457	859.6962587498246	1815.891405453661	393.4758787847855	890.6257038378301	2063.839365279183	695.7007400496337	837.6042810287937	2011.337924117807	715.0892582813991	884.7026220268202	2087.53134754682	802.6305035239739	823.3114583853713	2041.170076557412	819.3244780480833	873.1721680885162	2270.62828966781	1095.731127170723	1120.159225144138	2458.783803646186	149.7765091580791	1082.307277127433	2294.941491969398	57.30792800300614	1049.297754313207	2317.592587438151	79.06229334914104	1098.663782867477	2292.580189851975	103.4087954805339	1053.747283247953	2206.454382321285	1174.904059904977	1164.768897112148	2508.685983094031	124.0529468830082	1032.960262177614	2476.687971884377	96.76862344893	1137.481863526084	2109.676643174521	1140.826024373354	1065.059388774883	2343.500593539821	208.9294022489892	1128.771199366196	2296.976331790549	207.0125272563204	1097.994300438344	2322.965723723909	283.6354579540497	1153.325772636728	2278.098229576555	281.2569201315252	1122.84173530177	2305.898036243178	675.0531200349042	1187.03037767904	2241.160620254488	656.8492627043895	1163.911657804103	2272.941931560108	779.568879634209	1199.705538739718	2209.960341282745	761.6457947083032	1180.028537540469	
568	3.78	2271.589588312942	1070.796492091171	889.344967928979	1660.841867323112	266.7316952847219	974.0034757169443	1685.018230218752	248.6893369770635	920.5659738034192	1703.668986658917	285.833447187176	963.1779812770407	2215.574222074182	1162.914709624786	850.6072709005718	1801.134370188646	90.09014447997144	979.2731666557039	1748.337278451585	113.5547188792937	883.0148055588144	2107.576562019053	1137.801826387949	965.6037471833247	1796.65304975905	302.0344540938069	884.6401746929689	1768.193967035838	330.7350194646222	915.4802788040836	1840.577994738048	365.2412128300281	859.5417714915735	1813.105368351951	398.4549826909798	890.4144575849972	2066.050914933779	694.9115191943681	837.376698427839	2013.072615606073	714.504280786542	883.8752756533916	2089.773255684691	801.8628551474197	822.8180689541421	2042.788960800802	818.744379103175	872.0087342685122	2271.436337797856	1094.691517807282	1120.519784926223	2469.574733888602	151.7969669647756	1079.865218993413	2308.473393494226	53.89436120066415	1047.923783279123	2331.153537002394	75.8077281952696	1097.2222621745	2304.483973767796	99.84683319313797	1053.031230363905	2207.636045549678	1173.631330203805	1165.316236637178	2519.589529609824	128.5676295390095	1029.443237192438	2490.117784334312	98.59568330329499	1134.051133135758	2110.519068159711	1140.286283501383	1065.517367645954	2352.242584805653	207.3606241733914	1127.692353253049	2305.644778858081	204.0250534787129	1097.028818710741	2329.501030490318	281.3760704541015	1152.424959829422	2284.647039945538	277.6709608433047	1122.027485535419	2304.104746418825	673.010840366375	1187.082141401833	2239.279129630856	655.4463586103619	1163.675542482525	2271.907232375213	777.6977644879689	1200.324321841366	2208.855736887305	760.392474267933	1180.307837773236	
